<svg preserveAspectRatio="none" overflow="visible" style="display: block;" width="78.1667" height="62.8335" viewBox="0 0 78.1667 62.8335" fill="none" xmlns="http://www.w3.org/2000/svg">
<g id="elements">
<path id="Rectangle 2190" d="M46.75 46.7502C46.75 39.522 46.75 35.9079 48.9955 33.6624C51.241 31.4169 54.8551 31.4169 62.0833 31.4169C69.3115 31.4169 72.9256 31.4169 75.1712 33.6624C77.4167 35.9079 77.4167 39.522 77.4167 46.7502C77.4167 53.9784 77.4167 57.5925 75.1712 59.838C72.9256 62.0835 69.3115 62.0835 62.0833 62.0835C54.8551 62.0835 51.241 62.0835 48.9955 59.838C46.75 57.5925 46.75 53.9784 46.75 46.7502Z" fill="#F7F8FC" stroke="#F7F8FC" stroke-width="1.5"/>
<path id="Rectangle 2191" d="M46.75 46.7502V30.8903C46.75 16.8337 56.3936 4.91259 69.75 0.7502" stroke="#F7F8FC" stroke-width="1.5" stroke-linecap="round"/>
<path id="Rectangle 2192" d="M0.75 46.7502C0.75 39.522 0.75 35.9079 2.99551 33.6624C5.24103 31.4169 8.85513 31.4169 16.0833 31.4169C23.3115 31.4169 26.9256 31.4169 29.1712 33.6624C31.4167 35.9079 31.4167 39.522 31.4167 46.7502C31.4167 53.9784 31.4167 57.5925 29.1712 59.838C26.9256 62.0835 23.3115 62.0835 16.0833 62.0835C8.85513 62.0835 5.24103 62.0835 2.99551 59.838C0.75 57.5925 0.75 53.9784 0.75 46.7502Z" fill="#F7F8FC" stroke="#F7F8FC" stroke-width="1.5"/>
<path id="Rectangle 2193" d="M0.75 46.7502V30.8903C0.75 16.8337 10.3936 4.91259 23.75 0.7502" stroke="#F7F8FC" stroke-width="1.5" stroke-linecap="round"/>
</g>
</svg>
